/* XPM */
static char *f1d14395a6be45d1f5695f1dbb131838rzEePG4gWVSDcNz3[] = {
/* columns rows colors chars-per-pixel */
"16 16 87 1 ",
"  c None",
". c #0F0F0F",
"X c #101010",
"o c #191817",
"O c #1B1A18",
"+ c #1E1D1D",
"@ c #230311",
"# c #240312",
"$ c #2B0C19",
"% c #3D081A",
"& c #241C1D",
"* c #28221E",
"= c #381620",
"- c #3C1622",
"; c #2B2223",
": c #2D2723",
"> c #2F2124",
", c #2C2726",
"< c #3B3636",
"1 c #490A1E",
"2 c #48131F",
"3 c #571121",
"4 c #5D1522",
"5 c #601822",
"6 c #472522",
"7 c #46262C",
"8 c #423532",
"9 c #473635",
"0 c #493635",
"q c #4D3338",
"w c #4F363B",
"e c #423838",
"r c #453B38",
"t c #4F393D",
"y c #5E363D",
"u c #543939",
"i c #722026",
"p c #7F2729",
"a c #75302F",
"s c #6D3D3E",
"d c #494139",
"f c #68443D",
"g c #75403A",
"h c #5A3742",
"j c #5B3742",
"k c #5A3743",
"l c #543C40",
"z c #5A3841",
"x c #5B3843",
"c c #5C3B45",
"v c #6C3F48",
"b c #524543",
"n c #544848",
"m c #595047",
"M c #5D4C50",
"N c #645351",
"B c #645451",
"V c #655452",
"C c #675B5C",
"Z c #7D595C",
"A c #862B2A",
"S c #8A312C",
"D c #8F3832",
"F c #964137",
"G c #99463A",
"H c #8A4847",
"J c #804A4C",
"K c #A15242",
"L c #A25342",
"P c #A35C4D",
"I c #84655B",
"U c #876C6E",
"Y c #827B7A",
"T c #8D7A79",
"R c #A66F64",
"E c #918583",
"W c #9B8081",
"Q c #928B88",
"! c #9B9190",
"~ c #A08481",
"^ c #A48A8A",
"/ c #A18D8E",
"( c #A09093",
") c #A99292",
"_ c #AA9292",
"` c #AA9393",
"' c #AD9F9D",
/* pixels */
"      Gi11      ",
"     LGp311     ",
"   LLGAAA41@    ",
"   LFAJs621##   ",
"   Dg*``Tr###   ",
"   Sf*7v0:##@   ",
"  LDfd11-8###@  ",
"  RPImu%#9##$w  ",
"  /~'Qa5%=ttlc  ",
"`WZ;XCHHyMC. jzz",
"`^ .XX<<<+XX. xj",
"   XXXXXXX>&.   ",
"  (UnXXX.qVb,   ",
"   !E X.   VN   ",
"  Y   X     Ne  ",
" .+         OO  "
};
