/* XPM */
static char *_ad6c847e3fc4203c5c90a6df484bd9cJyXg87OBJQH5Y8Zt[] = {
/* columns rows colors chars-per-pixel */
"16 16 55 1 ",
"  c None",
". c #211F33",
"X c #221F33",
"o c #201F34",
"O c #211F34",
"+ c #221E34",
"@ c #221F34",
"# c #212034",
"$ c #222034",
"% c #262437",
"& c #272437",
"* c #262438",
"= c #292639",
"- c #29273A",
"; c #2B293C",
": c #3F3D4F",
"> c #424150",
", c #444352",
"< c #504E5D",
"1 c #555362",
"2 c #575664",
"3 c #5F5E6A",
"4 c #605F6B",
"5 c #63626D",
"6 c #64636F",
"7 c #676672",
"8 c #706F79",
"9 c #77777D",
"0 c #757480",
"q c #777680",
"w c #818085",
"e c #919097",
"r c #979799",
"t c #A9A9AD",
"y c #ACACAF",
"u c #ADACB0",
"i c #B1B1B4",
"p c #B2B1B8",
"a c #B6B5B8",
"s c #C1C1C1",
"d c #C4C4C5",
"f c #C6C6C7",
"g c gray78",
"h c #C8C8C8",
"j c gray79",
"k c gray80",
"l c #CDCDCD",
"z c #CECECE",
"x c #D0D0D0",
"c c gray82",
"v c #D2D2D2",
"b c gray87",
"n c #EAEAEA",
"m c gray93",
"M c #F9F9F9",
/* pixels */
"     :2222:     ",
"    <mxxxxf,    ",
" @;pby1  2ule-  ",
" $;MuX    $uh-  ",
" $-luX    Xuh-  ",
"   qla7X@7al9   ",
"    >ixklxi>    ",
"      8lk8      ",
"      0nk3      ",
"      0nl4      ",
"      7xk4      ",
"     @5lk3      ",
" $*rdlxvl4      ",
" @&wtgxxk4      ",
" @&9sxxxk4      ",
"    @X5lk3      "
};
