/* XPM */
static char *dd309f4416e746b1b1282588a79f756bCRfkJ2hQELWQvDDQ[] = {
/* columns rows colors chars-per-pixel */
"16 16 25 1 ",
"  c None",
". c #674239",
"X c #69543F",
"o c #252B43",
"O c #262A43",
"+ c #252A44",
"@ c #262B44",
"# c #333343",
"$ c #343746",
"% c #4E4441",
"& c #69664D",
"* c #6A664D",
"= c #A0753B",
"- c #F77622",
"; c #857D51",
": c #BB8539",
"> c #FA8E2A",
", c #FA8F2A",
"< c #FB952C",
"1 c #FB962C",
"2 c #FEAE34",
"3 c #D5C45C",
"4 c #FED553",
"5 c #FEDC59",
"6 c #FEE761",
/* pixels */
"                ",
"   @@@@@        ",
"  *66666o       ",
" @*66666@@  @   ",
"$642225663@;6*  ",
"$642225663@;6*@ ",
"$642225663o @:2#",
"$642225663@@@:2#",
" @*666662222222#",
"  *666662222222#",
"   @=22222222X@ ",
"   @=22222222X  ",
"  .-12%@--->2X  ",
"  .-12%@--->2X  ",
"   @@@  @@@@@   ",
"                "
};
