/* XPM */
static char *_ecb5792b2db4b35925f9a937ea2a92f7JZiYSj0n3puRmRF[] = {
/* columns rows colors chars-per-pixel */
"16 16 77 1 ",
"  c None",
". c #3C54A3",
"X c #1871CD",
"o c #1872CE",
"O c #1973CF",
"+ c #1A77D3",
"@ c #1A79D5",
"# c #1B7CD8",
"$ c #1B7DD9",
"% c #1C7EDA",
"& c #1C7EDB",
"* c #2774C9",
"= c #2474CA",
"- c #2675CB",
"; c #2475CC",
": c #257BD2",
"> c #257CD4",
", c #267DD4",
"< c #297ED3",
"1 c #2F7ED1",
"2 c #287ED4",
"3 c #2A7FD4",
"4 c #247FD8",
"5 c #307FD2",
"6 c #1D82DF",
"7 c #2B80D5",
"8 c #2982D8",
"9 c #2A83D9",
"0 c #2E85D9",
"q c #3681D0",
"w c #3882D1",
"e c #1D83E0",
"r c #1D84E1",
"t c #1E88E5",
"y c #6D9DDA",
"u c #70A0DB",
"i c #4C9AE3",
"p c #4A9BE4",
"a c #539FE5",
"s c #509FE7",
"d c #5EA2E4",
"f c #5CAAED",
"g c #5FACEE",
"h c #6AB1EF",
"j c #70B2ED",
"k c #75B5EF",
"l c #7AB6ED",
"z c #66B0F0",
"x c #67B3F3",
"c c #64B5F6",
"v c #67B6F7",
"b c #69B2F1",
"n c #6AB8F7",
"m c #6CB9F7",
"M c #6EBAF7",
"N c #6FBAF7",
"B c #72B9F5",
"V c #71BBF7",
"C c #76BBF4",
"Z c #72BCF7",
"A c #74BDF8",
"S c #76BEF8",
"D c #78BFF8",
"F c #7AC0F8",
"G c #7BC0F8",
"H c #7DC1F8",
"J c #81C3F8",
"K c #83C4F8",
"L c #84C4F8",
"P c #86C5F9",
"I c #87C6F9",
"U c #88C6F9",
"Y c #89C7F9",
"T c #8AC8F9",
"R c #8BC8F9",
"E c #8ECAF9",
"W c #90CAF9",
/* pixels */
"                ",
"                ",
"                ",
"     WmJGZTc    ",
"     m539<wY    ",
"     J3#6%:S    ",
"     P7%e&>m    ",
"     m1<9>qY    ",
"     YxCBblN    ",
"     mJSGy.P    ",
"     PSHGkuN    ",
"     HiappdF    ",
"     n-O@o-T    ",
"     W0ete8c    ",
"     c=o+o*E    ",
"     PfbzgkN    "
};
